<?xml version="1.0" encoding="utf-8"?>

<!-- License Agreement at http://iconmonstr.com/license/ -->

<!DOCTYPE svg PUBLIC "-//W3C//DTD SVG 1.1//EN" "http://www.w3.org/Graphics/SVG/1.1/DTD/svg11.dtd">
<svg version="1.1" xmlns="http://www.w3.org/2000/svg" xmlns:xlink="http://www.w3.org/1999/xlink" x="0px" y="0px"
	 width="512px" height="512px" viewBox="0 0 512 512" enable-background="new 0 0 512 512" xml:space="preserve">
<path id="cursor-move-icon" d="M297.217,255.999c0,22.764-18.455,41.219-41.218,41.219c-22.764,0-41.217-18.455-41.217-41.219
	s18.453-41.217,41.217-41.217C278.762,214.782,297.217,233.235,297.217,255.999z M227.253,190.864
	c8.799-3.898,18.52-6.082,28.746-6.082c10.567,0,20.595,2.331,29.622,6.478v-54.486h50.59L255.562,50l-79.775,86.773h51.467V190.864
	z M184.782,255.999c0-10.566,2.331-20.594,6.478-29.62h-54.486v-50.591L50,256.438l86.773,79.775v-51.467h54.091
	C186.966,275.948,184.782,266.227,184.782,255.999z M285.621,320.739c-9.027,4.147-19.055,6.479-29.622,6.479
	c-10.227,0-19.947-2.184-28.746-6.082v57.683h-50.594L256.436,462l79.777-83.182h-50.592V320.739z M462,255.564l-83.182-79.778
	v50.593H320.74c4.146,9.026,6.477,19.054,6.477,29.62c0,10.228-2.184,19.949-6.082,28.748h57.684v50.594L462,255.564z"/>
</svg>
