<?xml version="1.0" encoding="utf-8"?>

<!-- The icon can be used freely in both personal and commercial projects with no attribution required, but always appreciated. 
You may NOT sub-license, resell, rent, redistribute or otherwise transfer the icon without express written permission from iconmonstr.com -->

<!DOCTYPE svg PUBLIC "-//W3C//DTD SVG 1.1//EN" "http://www.w3.org/Graphics/SVG/1.1/DTD/svg11.dtd">
<svg version="1.1" xmlns="http://www.w3.org/2000/svg" xmlns:xlink="http://www.w3.org/1999/xlink" x="0px" y="0px"
	 width="512px" height="512px" viewBox="0 0 512 512" enable-background="new 0 0 512 512" xml:space="preserve">
<path id="sound-wave-4-icon" d="M237.055,360.833c-34.102,0-33.002-85.072-47.146-120.934c-0.785-1.985-3.592-2.03-4.435-0.063
	c-12.42,29.009-8.91,94.997-39.919,94.997c-32.848,0-25.62-62.833-49-62.833H50v-21h46.555c33.348,0,37.052,40.351,45.757,58.451
	c1.013,2.111,4.051,2.05,4.979-0.1c11.979-27.733,8.805-96.185,41.265-96.185c31.535,0,29.019,81.398,44.725,119.123
	c0.869,2.089,3.906,1.917,4.522-0.275c14.995-53.414,4.424-180.848,44.753-180.848c38.356,0,31.444,99.099,44.913,140.391
	c0.75,2.305,3.908,2.584,5.054,0.449c11.67-21.75,9.817-70.84,36.533-70.84c28.301,0,24.789,49.333,46,49.333H462v21h-46.945
	c-28.598,0-35.558-30.129-42.871-44.435c-0.996-1.953-3.852-1.789-4.615,0.271c-8.481,22.835-10.213,70.497-40.098,70.497
	c-34.449,0-24.114-101.428-41.982-140.489c-0.933-2.041-3.871-1.975-4.706,0.115C261.557,225.562,275.394,360.833,237.055,360.833z"
	/>
</svg>
